<svg version="1.2" xmlns="http://www.w3.org/2000/svg" viewBox="0 0 820 712" width="820" height="712">
	<title>4150154-ai</title>
	<defs>
		<clipPath clipPathUnits="userSpaceOnUse" id="cp1">
			<path d="m587.84 179.87c0 26.01-21.08 47.09-47.08 47.09-26 0-47.08-21.08-47.08-47.09 0-26 21.08-47.08 47.08-47.08 26 0 47.08 21.08 47.08 47.08z"/>
		</clipPath>
		<clipPath clipPathUnits="userSpaceOnUse" id="cp2">
			<path d="m294.36 181.17c0 26.01-21.08 47.09-47.08 47.09-26.01 0-47.09-21.08-47.09-47.09 0-26 21.08-47.08 47.09-47.08 26 0 47.08 21.08 47.08 47.08z"/>
		</clipPath>
		<clipPath clipPathUnits="userSpaceOnUse" id="cp3">
			<path d="m441.41 134.7c0 26-21.08 47.09-47.08 47.09-26 0-47.08-21.09-47.08-47.09 0-26 21.08-47.08 47.08-47.08 26 0 47.08 21.08 47.08 47.08z"/>
		</clipPath>
		<linearGradient id="g1" x1="435.3" y1="453.3" x2="435.3" y2="453.3" gradientUnits="userSpaceOnUse">
			<stop offset="0" stop-color="#ffffff"/>
			<stop offset="1" stop-color="#ffffff"/>
		</linearGradient>
	</defs>
	<style>
		.s0 { fill: #fef5f3 } 
		.s1 { fill: #3b951c } 
		.s2 { fill: #fadad1 } 
		.s3 { fill: #edb200 } 
		.s4 { fill: #b75135 } 
		.s5 { fill: #8a3d28 } 
		.s6 { fill: #002762 } 
		.s7 { opacity: .4;mix-blend-mode: multiply;fill: #99a9c0 } 
		.s8 { fill: #f5b5a3 } 
		.s9 { fill: #ef886b } 
		.s10 { fill: #fdf5f3 } 
		.s11 { fill: #f29e87 } 
		.s12 { fill: #f3a38d } 
		.s13 { fill: #ed7c5c } 
		.s14 { fill: #4d93fb } 
		.s15 { fill: #2e7bdc } 
		.s16 { fill: #115bc8 } 
		.s17 { fill: #0051b5 } 
		.s18 { fill: #ac4255 } 
		.s19 { opacity: .4;mix-blend-mode: screen;fill: #4d93fb } 
		.s20 { fill: url(#g1) } 
		.s21 { fill: #b9d5ff } 
		.s22 { fill: #db9c00 } 
		.s23 { fill: none;stroke: #be5437;stroke-width: 1.8;stroke-dasharray: 4 } 
		.s24 { fill: none;stroke: #002762;stroke-width: 4 } 
	</style>
	<g id="&lt;Group&gt;">
		<g id="&lt;Group&gt;">
			<g id="&lt;Group&gt;">
				<g id="&lt;Group&gt;">
					<path id="&lt;Path&gt;" class="s0" d="m625 405.9h-167.7c-14.9 0-27-12.1-27-27v-260.8c0-14.9 12.1-27 27-27h167.7c14.9 0 27 12.1 27 27v260.8c0 14.9-12.1 27-27 27z"/>
					<g id="&lt;Group&gt;">
						<path id="&lt;Path&gt;" class="s1" d="m652 118.1h-221.7c0-14.9 12.1-27 27-27h167.7c14.9 0 27 12.1 27 27z"/>
					</g>
					<g id="&lt;Group&gt;">
						<path id="&lt;Path&gt;" class="s2" d="m618.9 260.9h-155.5v-14.9h155.5z"/>
						<path id="&lt;Path&gt;" class="s2" d="m618.9 272.4h-155.5v-5.9h155.5z"/>
						<g id="&lt;Group&gt;">
							<path id="&lt;Path&gt;" class="s2" d="m618.9 289h-155.5v-2.1h155.5z"/>
							<path id="&lt;Path&gt;" class="s2" d="m618.9 296.9h-155.5v-2.1h155.5z"/>
							<path id="&lt;Path&gt;" class="s2" d="m618.9 304.8h-155.5v-2.1h155.5z"/>
							<path id="&lt;Path&gt;" class="s2" d="m618.9 312.7h-155.5v-2.1h155.5z"/>
							<path id="&lt;Path&gt;" class="s2" d="m618.9 320.6h-155.5v-2.1h155.5z"/>
							<path id="&lt;Path&gt;" class="s2" d="m539.7 328.5h-76.3v-2.1h76.3z"/>
						</g>
					</g>
					<g id="&lt;Group&gt;">
						<path id="&lt;Path&gt;" class="s3" d="m474 352.8l1.7 5c0.4 1.3 1.5 2.1 2.8 2.1h5.2c2.9 0 4 3.6 1.7 5.3l-4.2 3.1c-1 0.7-1.5 2-1.1 3.2l1.7 5.1c0.8 2.7-2.3 4.9-4.6 3.2l-4.2-3.1c-1-0.7-2.4-0.7-3.5 0l-4.2 3.1c-2.3 1.7-5.4-0.5-4.5-3.2l1.6-5.1c0.4-1.2 0-2.5-1.1-3.2l-4.2-3.1c-2.3-1.7-1.2-5.3 1.7-5.3h5.3c1.2 0 2.3-0.8 2.7-2.1l1.7-5c0.8-2.7 4.7-2.7 5.5 0z"/>
						<path id="&lt;Path&gt;" class="s3" d="m509 352.8l1.6 5c0.4 1.3 1.5 2.1 2.8 2.1h5.3c2.8 0 4 3.6 1.7 5.3l-4.3 3.1c-1 0.7-1.4 2-1 3.2l1.6 5.1c0.9 2.7-2.2 4.9-4.5 3.2l-4.3-3.1c-1-0.7-2.4-0.7-3.4 0l-4.3 3.1c-2.3 1.7-5.4-0.5-4.5-3.2l1.6-5.1c0.4-1.2 0-2.5-1-3.2l-4.3-3.1c-2.3-1.7-1.1-5.3 1.7-5.3h5.3c1.3 0 2.4-0.8 2.8-2.1l1.6-5c0.9-2.7 4.7-2.7 5.6 0z"/>
						<path id="&lt;Path&gt;" class="s3" d="m543.9 352.8l1.6 5c0.4 1.3 1.6 2.1 2.8 2.1h5.3c2.8 0 4 3.6 1.7 5.3l-4.2 3.1c-1.1 0.7-1.5 2-1.1 3.2l1.6 5.1c0.9 2.7-2.2 4.9-4.5 3.2l-4.2-3.1c-1.1-0.7-2.5-0.7-3.5 0l-4.2 3.1c-2.3 1.7-5.4-0.5-4.6-3.2l1.7-5.1c0.4-1.2-0.1-2.5-1.1-3.2l-4.3-3.1c-2.3-1.7-1.1-5.3 1.8-5.3h5.2c1.3 0 2.4-0.8 2.8-2.1l1.6-5c0.9-2.7 4.7-2.7 5.6 0z"/>
						<path id="&lt;Path&gt;" class="s3" d="m578.9 352.8l1.6 5c0.4 1.3 1.5 2.1 2.8 2.1h5.2c2.9 0 4.1 3.6 1.8 5.3l-4.3 3.1c-1 0.7-1.5 2-1.1 3.2l1.7 5.1c0.8 2.7-2.3 4.9-4.6 3.2l-4.2-3.1c-1-0.7-2.4-0.7-3.5 0l-4.2 3.1c-2.3 1.7-5.4-0.5-4.5-3.2l1.6-5.1c0.4-1.2 0-2.5-1.1-3.2l-4.2-3.1c-2.3-1.7-1.1-5.3 1.7-5.3h5.3c1.2 0 2.4-0.8 2.8-2.1l1.6-5c0.9-2.7 4.7-2.7 5.6 0z"/>
						<path id="&lt;Path&gt;" class="s3" d="m613.8 352.8l1.6 5c0.4 1.3 1.5 2.1 2.8 2.1h5.3c2.8 0 4 3.6 1.7 5.3l-4.3 3.1c-1 0.7-1.4 2-1 3.2l1.6 5.1c0.9 2.7-2.2 4.9-4.5 3.2l-4.3-3.1c-1-0.7-2.4-0.7-3.4 0l-4.3 3.1c-2.3 1.7-5.4-0.5-4.5-3.2l1.6-5.1c0.4-1.2 0-2.5-1-3.2l-4.3-3.1c-2.3-1.7-1.1-5.3 1.7-5.3h5.3c1.3 0 2.4-0.8 2.8-2.1l1.6-5c0.9-2.7 4.7-2.7 5.6 0z"/>
					</g>
					<g id="&lt;Group&gt;">
						<path id="&lt;Path&gt;" class="s2" d="m591.5 179.9c0 28-22.7 50.7-50.7 50.7-28.1 0-50.8-22.7-50.8-50.7 0-28.1 22.7-50.8 50.8-50.8 28 0 50.7 22.7 50.7 50.8z"/>
						<g id="&lt;Clip Group&gt;" clip-path="url(#cp1)">
							<g id="&lt;Group&gt;">
								<path id="&lt;Path&gt;" class="s3" d="m506.1 232.3v-23.7c0-6.9 5.6-12.5 12.5-12.5h44.9c6.9 0 12.5 5.6 12.5 12.5v23.7z"/>
								<g id="&lt;Group&gt;">
									<path id="&lt;Path&gt;" class="s4" d="m554 196.1h2.9c0 6.8-7.1 12.3-15.9 12.3-8.7 0-15.8-5.5-15.8-12.3h2.3c2.2 0 3.9-1.8 3.9-4v-9.3h18.7v9.3c0 2.2 1.7 4 3.9 4z"/>
									<path id="&lt;Path&gt;" class="s5" d="m527.5 196.1c2.2 0 3.9-1.8 3.9-4v-9.3h18.7c-3.4 6.7-10.4 13.3-22.6 13.3z"/>
								</g>
								<path id="&lt;Path&gt;" class="s4" d="m554 173.3c0 8.4-5.8 13.8-13 13.8-7.1 0-12.9-5.4-12.9-13.8 0-8.3 5.8-16.5 12.9-16.5 7.2 0 13 8.2 13 16.5z"/>
								<g id="&lt;Group&gt;">
									<path id="&lt;Path&gt;" class="s6" d="m536.3 172.7c0 0.6-0.4 1.1-1 1.1-0.6 0-1.1-0.5-1.1-1.1 0-0.5 0.5-1 1.1-1 0.6 0 1 0.5 1 1z"/>
									<g id="&lt;Group&gt;">
										<path id="&lt;Path&gt;" class="s6" d="m533.1 171c-0.3 0-0.6-0.2-0.7-0.5-0.2-0.4 0-0.9 0.4-1.1l2.1-1c0.4-0.3 0.9-0.1 1.1 0.3 0.2 0.4 0.1 0.9-0.3 1.1l-2.2 1.1q-0.2 0.1-0.4 0.1z"/>
									</g>
									<path id="&lt;Path&gt;" class="s6" d="m546.8 171.7c0.6 0 1 0.5 1 1 0 0.6-0.4 1.1-1 1.1-0.6 0-1-0.5-1-1.1 0-0.5 0.4-1 1-1z"/>
									<g id="&lt;Group&gt;">
										<path id="&lt;Path&gt;" class="s6" d="m548.6 170.9l-2.2-1.1c-0.4-0.2-0.5-0.7-0.3-1.1 0.2-0.4 0.7-0.6 1.1-0.3l2.1 1c0.4 0.2 0.6 0.7 0.4 1.1-0.1 0.3-0.4 0.5-0.7 0.5q-0.2 0-0.4-0.1z"/>
									</g>
									<path id="&lt;Path&gt;" class="s5" d="m540.8 170.3l0.2 2.3c0 0.4 0 0.8 0 1.3-0.1 0.4-0.3 0.9-0.8 1.1-0.6 0.4-0.8 1-0.5 1.4 0.2 0.5 1.1 0.5 1.9 0.8-0.4 0.2-0.8 0.2-1.3 0.3-0.4 0-0.9-0.2-1.3-0.6-0.3-0.4-0.4-1.1-0.1-1.5 0.2-0.5 0.7-0.8 1-0.9 0.3-0.2 0.5-0.4 0.6-0.7 0-0.3 0-0.8 0.1-1.2l0.1-2.3z"/>
									<g id="&lt;Group&gt;">
										<path id="&lt;Path&gt;" class="s6" d="m535.6 176.9c0.8 1.2 1.9 2.1 3.3 2.4 1.3 0.3 2.7 0.2 4-0.1l-1 0.4c-0.3 0-0.6 0.1-1 0.2q-1.1 0.1-2.2-0.1c-1.4-0.4-2.6-1.4-3.1-2.8z"/>
									</g>
								</g>
								<path id="&lt;Path&gt;" class="s6" d="m532.1 164c0.4 3.8-2.1 5.1-2.1 5.1 1.6 1.1 0.7 3.6-0.1 5.5-0.7 1.9-1.7 4.5 2.2 9 4.2 4.8 0.8 12.5-2.7 12.5-3.6 0-23.2 0-23.2 0-4.2-7.9 5.7-14.1 4.1-15.5-3-2.6-0.2-5.8-0.2-5.8-1.2-4.6 0-6.4 3.1-8.7 3.1-2.3 3.3-6.1 3.7-9.3 0.5-3.2 4-3.2 4-3.2 1.6-3.5 5.3-3.1 5.3-3.1-4.9-9.1 4.3-18 13.7-15.7 6.9 1.6 8.3 3.3 12.2 2.9 3.9-0.3 5.7 3.7 7.1 3.7 5.9 0 6.1 4.8 6.1 4.8 5.1 0.8 4.3 6.5 4.3 6.5 3.1 1 2.3 4 2.3 4 5 2.4 2.5 8.4 2.5 8.4 5.3 3.5 1.4 8.4 1.4 8.4 11.7 10.5 5.2 22.6 5.2 22.6h-28.1c-8 0-5.1-9-5.1-9-4.9-6.9 4.3-16.8 1-17.1-3.3-0.4-3.9-3.2-3.9-3.2-5.4 2.3-11.9-2-10.3-7.1 0 0-3 0.5-2.5 4.3z"/>
							</g>
						</g>
					</g>
				</g>
				<path id="&lt;Path&gt;" class="s7" d="m541.1 405.9h-83.8c-14.9 0-27-12.1-27-27v-260.8c0-14.9 12.1-27 27-27h83.8z"/>
			</g>
			<g id="&lt;Group&gt;">
				<g id="&lt;Group&gt;">
					<path id="&lt;Path&gt;" class="s0" d="m136.7 378.9v-260.8c0-14.9 12.1-27 27-27h167.7c14.9 0 27 12.1 27 27v260.8c0 14.9-12.1 27-27 27h-167.7c-14.9 0-27-12.1-27-27z"/>
					<g id="&lt;Group&gt;">
						<path id="&lt;Path&gt;" class="s1" d="m358.4 118.1h-221.7c0-14.9 12.1-27 27-27h167.7c14.9 0 27 12.1 27 27z"/>
						<path id="&lt;Path&gt;" class="s6" d="m191.4 100.5v48.2c0 10.8-8.8 19.7-19.7 19.7-10.8 0-19.6-8.9-19.6-19.7v-57.6c0-9 7.3-16.4 16.4-16.4 9 0 16.4 7.4 16.4 16.4h-4.7c0-6.4-5.3-11.7-11.7-11.7-6.5 0-11.7 5.3-11.7 11.7v57.6c0 8.3 6.7 15 14.9 15 8.3 0 15-6.7 15-15v-48.2c0-1.3 1-2.3 2.3-2.3 1.3 0 2.4 1 2.4 2.3z"/>
					</g>
					<g id="&lt;Group&gt;">
						<path id="&lt;Path&gt;" class="s2" d="m169.8 246h155.5v14.9h-155.5z"/>
						<path id="&lt;Path&gt;" class="s2" d="m169.8 266.5h155.5v5.9h-155.5z"/>
						<g id="&lt;Group&gt;">
							<path id="&lt;Path&gt;" class="s2" d="m169.8 286.9h155.5v2.1h-155.5z"/>
							<path id="&lt;Path&gt;" class="s2" d="m169.8 294.8h155.5v2.1h-155.5z"/>
							<path id="&lt;Path&gt;" class="s2" d="m169.8 302.7h155.5v2.1h-155.5z"/>
							<path id="&lt;Path&gt;" class="s2" d="m169.8 310.6h155.5v2.1h-155.5z"/>
							<path id="&lt;Path&gt;" class="s2" d="m169.8 318.5h155.5v2.1h-155.5z"/>
							<path id="&lt;Path&gt;" class="s2" d="m249 326.4h76.3v2.1h-76.3z"/>
						</g>
					</g>
					<g id="&lt;Group&gt;">
						<path id="&lt;Path&gt;" class="s2" d="m320.2 352.8l1.6 5c0.4 1.3 1.5 2.1 2.8 2.1h5.3c2.8 0 4 3.6 1.7 5.3l-4.3 3.1c-1 0.7-1.4 2-1 3.2l1.6 5.1c0.9 2.7-2.2 4.9-4.5 3.2l-4.3-3.1c-1-0.7-2.4-0.7-3.4 0l-4.3 3.1c-2.3 1.7-5.4-0.5-4.5-3.2l1.6-5.1c0.4-1.2 0-2.5-1-3.2l-4.3-3.1c-2.3-1.7-1.1-5.3 1.7-5.3h5.3c1.3 0 2.4-0.8 2.8-2.1l1.6-5c0.9-2.7 4.7-2.7 5.6 0z"/>
						<path id="&lt;Path&gt;" class="s2" d="m285.3 352.8l1.6 5c0.4 1.3 1.5 2.1 2.8 2.1h5.2c2.9 0 4.1 3.6 1.8 5.3l-4.3 3.1c-1 0.7-1.5 2-1.1 3.2l1.7 5.1c0.8 2.7-2.3 4.9-4.6 3.2l-4.2-3.1c-1-0.7-2.4-0.7-3.5 0l-4.2 3.1c-2.3 1.7-5.4-0.5-4.5-3.2l1.6-5.1c0.4-1.2 0-2.5-1.1-3.2l-4.2-3.1c-2.3-1.7-1.1-5.3 1.7-5.3h5.3c1.2 0 2.4-0.8 2.8-2.1l1.6-5c0.9-2.7 4.7-2.7 5.6 0z"/>
						<path id="&lt;Path&gt;" class="s2" d="m250.3 352.8l1.6 5c0.4 1.3 1.6 2.1 2.8 2.1h5.3c2.8 0 4 3.6 1.7 5.3l-4.2 3.1c-1.1 0.7-1.5 2-1.1 3.2l1.6 5.1c0.9 2.7-2.2 4.9-4.5 3.2l-4.2-3.1c-1.1-0.7-2.5-0.7-3.5 0l-4.2 3.1c-2.3 1.7-5.4-0.5-4.6-3.2l1.7-5.1c0.4-1.2-0.1-2.5-1.1-3.2l-4.3-3.1c-2.3-1.7-1.1-5.3 1.8-5.3h5.2c1.3 0 2.4-0.8 2.8-2.1l1.6-5c0.9-2.7 4.7-2.7 5.6 0z"/>
						<path id="&lt;Path&gt;" class="s2" d="m215.4 352.8l1.6 5c0.4 1.3 1.5 2.1 2.8 2.1h5.3c2.8 0 4 3.6 1.7 5.3l-4.3 3.1c-1 0.7-1.4 2-1 3.2l1.6 5.1c0.9 2.7-2.2 4.9-4.5 3.2l-4.3-3.1c-1-0.7-2.4-0.7-3.4 0l-4.3 3.1c-2.3 1.7-5.4-0.5-4.5-3.2l1.6-5.1c0.4-1.2 0-2.5-1-3.2l-4.3-3.1c-2.3-1.7-1.1-5.3 1.7-5.3h5.3c1.3 0 2.4-0.8 2.8-2.1l1.6-5c0.9-2.7 4.7-2.7 5.6 0z"/>
						<path id="&lt;Path&gt;" class="s2" d="m180.4 352.8l1.7 5c0.4 1.3 1.5 2.1 2.8 2.1h5.2c2.9 0 4 3.6 1.7 5.3l-4.2 3.1c-1 0.7-1.5 2-1.1 3.2l1.7 5.1c0.8 2.7-2.3 4.9-4.6 3.2l-4.2-3.1c-1-0.7-2.4-0.7-3.5 0l-4.2 3.1c-2.3 1.7-5.4-0.5-4.5-3.2l1.6-5.1c0.4-1.2 0-2.5-1.1-3.2l-4.2-3.1c-2.3-1.7-1.1-5.3 1.7-5.3h5.3c1.2 0 2.3-0.8 2.7-2.1l1.7-5c0.8-2.7 4.7-2.7 5.5 0z"/>
					</g>
					<g id="&lt;Group&gt;">
						<path id="&lt;Path&gt;" class="s2" d="m298.3 180.2c0 28.1-22.7 50.8-50.8 50.8-28 0-50.7-22.7-50.7-50.8 0-28 22.7-50.7 50.7-50.7 28.1 0 50.8 22.7 50.8 50.7z"/>
						<g id="&lt;Clip Group&gt;" clip-path="url(#cp2)">
							<g id="&lt;Group&gt;">
								<path id="&lt;Path&gt;" class="s3" d="m212.7 233.6v-23.7c0-6.9 5.5-12.5 12.4-12.5h44.9c6.9 0 12.5 5.6 12.5 12.5v23.7z"/>
								<g id="&lt;Group&gt;">
									<path id="&lt;Path&gt;" class="s8" d="m260.5 197.4h2.9c0 6.8-7.1 12.3-15.8 12.3-8.8 0-15.9-5.5-15.9-12.3h2.3c2.2 0 3.9-1.8 3.9-4v-9.3h18.7v9.3c0 2.2 1.7 4 3.9 4z"/>
									<path id="&lt;Path&gt;" class="s9" d="m234 197.4c2.2 0 3.9-1.8 3.9-4v-9.3h18.7c-3.3 6.7-10.4 13.3-22.6 13.3z"/>
								</g>
								<path id="&lt;Path&gt;" class="s9" d="m263.5 172.8c1.3 0.5 1.9 2.2 1.2 3.7-0.6 1.5-2.2 2.2-3.5 1.6-1.3-0.6-1.9-2.2-1.2-3.7 0.6-1.5 2.2-2.2 3.5-1.6z"/>
								<path id="&lt;Path&gt;" class="s9" d="m263.5 172.8c1.3 0.5 1.9 2.2 1.2 3.7-0.6 1.5-2.2 2.2-3.5 1.6-1.3-0.6-1.9-2.2-1.2-3.7 0.6-1.5 2.2-2.2 3.5-1.6z"/>
								<path id="&lt;Path&gt;" class="s9" d="m235.2 174.4c0.6 1.5 0.1 3.1-1.2 3.7-1.4 0.6-2.9-0.1-3.6-1.6-0.6-1.5-0.1-3.2 1.2-3.7 1.3-0.6 2.9 0.1 3.6 1.6z"/>
								<path id="&lt;Path&gt;" class="s8" d="m260.5 174.6c0 8.4-5.8 13.8-12.9 13.8-7.2 0-13-5.4-13-13.8 0-8.3 5.8-16.5 13-16.5 7.1 0 12.9 8.2 12.9 16.5z"/>
								<path id="&lt;Path&gt;" class="s6" d="m266.7 197.4h-3.3c-1.7 7.7-6.9 8.4-6.9 8.4 0 0 2.7-3-1.2-13.1-2.6-6.6 1.1-11.2 2.1-16.5 1.5-6.9-2.3-11.1-2.3-11.1l0.4 3.6c-1.5-2-1.8-4.1-1.9-5.2-0.2 4.2-4.7 6.7-9.5 7.5v-3.2l-6.2 3.3c-1 1.3-1.3 2.9-0.2 5.3 2 4.5 3.1 7.7 1.4 13.1-2.8 8.7 0.1 16.3 0.1 16.3 0 0-6.1-1.7-7.5-8.4h-3.3c0 0-2.1-0.9 1.2-4.6 3.3-3.7 2.9-11.9 1.1-20.3-1.5-6.7 0.8-12.6 4.3-16.7 3.9-4.5 11-5.6 16.6-1.7 9 0 14.4 11.3 13.5 19.1-0.8 7.1-4.6 8.6-0.4 13.9 4.1 5.3 2 10.3 2 10.3z"/>
								<path id="&lt;Path&gt;" class="s6" d="m256.7 148.6c0 4.8-3.9 8.7-8.7 8.7-4.8 0-8.7-3.9-8.7-8.7 0-4.8 3.9-8.7 8.7-8.7 4.8 0 8.7 3.9 8.7 8.7z"/>
								<g id="&lt;Group&gt;">
									<path id="&lt;Path&gt;" class="s6" d="m242.8 174c0 0.6-0.4 1.1-1 1.1-0.6 0-1-0.5-1-1.1 0-0.5 0.4-1 1-1 0.6 0 1 0.5 1 1z"/>
									<g id="&lt;Group&gt;">
										<path id="&lt;Path&gt;" class="s6" d="m239.6 172.3c-0.3 0-0.5-0.2-0.7-0.5-0.2-0.4 0-0.9 0.4-1.1l2.1-1c0.4-0.3 0.9-0.1 1.1 0.3 0.2 0.4 0.1 0.9-0.3 1.1l-2.2 1.1q-0.2 0.1-0.4 0.1z"/>
									</g>
									<path id="&lt;Path&gt;" class="s6" d="m253.3 173c0.6 0 1.1 0.5 1.1 1 0 0.6-0.5 1.1-1.1 1.1-0.6 0-1-0.5-1-1.1 0-0.5 0.4-1 1-1z"/>
									<g id="&lt;Group&gt;">
										<path id="&lt;Path&gt;" class="s6" d="m255.1 172.2l-2.1-1.1c-0.5-0.2-0.6-0.7-0.4-1.1 0.2-0.4 0.7-0.6 1.1-0.3l2.2 1c0.4 0.2 0.5 0.7 0.3 1.1-0.1 0.3-0.4 0.5-0.7 0.5q-0.2 0-0.4-0.1z"/>
									</g>
									<path id="&lt;Path&gt;" class="s9" d="m247.3 171.6l0.2 2.3c0 0.4 0.1 0.8 0 1.3-0.1 0.4-0.3 0.9-0.7 1.1-0.7 0.4-0.9 1-0.6 1.4 0.3 0.5 1.1 0.5 1.9 0.8-0.4 0.2-0.8 0.2-1.2 0.3-0.5 0-1-0.2-1.3-0.6-0.4-0.4-0.5-1.1-0.2-1.5 0.2-0.5 0.7-0.8 1-0.9 0.3-0.2 0.5-0.4 0.6-0.7 0.1-0.3 0-0.8 0.1-1.2l0.1-2.3z"/>
									<g id="&lt;Group&gt;">
										<path id="&lt;Path&gt;" class="s6" d="m242.2 178.2c0.7 1.2 1.9 2.1 3.2 2.4 1.3 0.3 2.7 0.2 4.1-0.1l-1 0.4c-0.4 0-0.7 0.1-1.1 0.2q-1.1 0.1-2.1-0.1c-1.4-0.4-2.7-1.4-3.1-2.8z"/>
									</g>
								</g>
							</g>
						</g>
					</g>
				</g>
				<path id="&lt;Path&gt;" class="s7" d="m247.5 91.1h83.9c14.9 0 27 12.1 27 27v260.8c0 14.9-12.1 27-27 27h-83.9z"/>
			</g>
			<g id="&lt;Group&gt;">
				<path id="&lt;Path&gt;" class="s10" d="m478.2 360.8h-167.7c-14.9 0-27-12-27-26.9v-260.9c0-14.9 12.1-27 27-27h167.7c14.9 0 27 12.1 27 27v260.9c0 14.9-12.1 26.9-27 26.9z"/>
				<g id="&lt;Group&gt;">
					<path id="&lt;Path&gt;" class="s1" d="m505.2 73h-221.7c0-14.9 12.1-27 27-27h167.7c14.9 0 27 12.1 27 27z"/>
					<path id="&lt;Path&gt;" class="s6" d="m338.2 55.4v48.2c0 10.9-8.8 19.7-19.7 19.7-10.8 0-19.6-8.8-19.6-19.7v-57.6c0-9 7.3-16.3 16.4-16.3 9 0 16.4 7.3 16.4 16.3h-4.7c0-6.4-5.3-11.6-11.7-11.6-6.5 0-11.7 5.2-11.7 11.6v57.6c0 8.3 6.7 15 14.9 15 8.3 0 15-6.7 15-15v-48.2c0-1.2 1-2.3 2.3-2.3 1.3 0 2.4 1.1 2.4 2.3z"/>
				</g>
				<g id="&lt;Group&gt;">
					<path id="&lt;Path&gt;" class="s2" d="m472.1 215.8h-155.5v-14.9h155.5z"/>
					<path id="&lt;Path&gt;" class="s2" d="m472.1 227.3h-155.5v-5.9h155.5z"/>
					<g id="&lt;Group&gt;">
						<path id="&lt;Path&gt;" class="s2" d="m472.1 243.9h-155.5v-2.1h155.5z"/>
						<path id="&lt;Path&gt;" class="s2" d="m472.1 251.8h-155.5v-2.1h155.5z"/>
						<path id="&lt;Path&gt;" class="s2" d="m472.1 259.7h-155.5v-2.1h155.5z"/>
						<path id="&lt;Path&gt;" class="s2" d="m472.1 267.6h-155.5v-2.1h155.5z"/>
						<path id="&lt;Path&gt;" class="s2" d="m472.1 275.5h-155.5v-2.1h155.5z"/>
						<path id="&lt;Path&gt;" class="s2" d="m392.9 283.4h-76.3v-2.1h76.3z"/>
					</g>
				</g>
				<g id="&lt;Group&gt;">
					<path id="&lt;Path&gt;" class="s11" d="m327.2 307.8l1.7 5c0.4 1.2 1.5 2 2.8 2h5.2c2.9 0 4 3.6 1.7 5.3l-4.2 3.1c-1 0.7-1.5 2.1-1.1 3.3l1.7 5c0.8 2.7-2.3 4.9-4.6 3.2l-4.2-3c-1-0.8-2.4-0.8-3.5 0l-4.2 3c-2.3 1.7-5.4-0.5-4.5-3.2l1.6-5c0.4-1.2 0-2.6-1.1-3.3l-4.2-3.1c-2.3-1.7-1.2-5.3 1.7-5.3h5.3c1.2 0 2.3-0.8 2.7-2l1.7-5c0.8-2.7 4.7-2.7 5.5 0z"/>
					<path id="&lt;Path&gt;" class="s11" d="m362.2 307.8l1.6 5c0.4 1.2 1.5 2 2.8 2h5.3c2.8 0 4 3.6 1.7 5.3l-4.3 3.1c-1 0.7-1.4 2.1-1 3.3l1.6 5c0.9 2.7-2.2 4.9-4.5 3.2l-4.3-3c-1-0.8-2.4-0.8-3.4 0l-4.3 3c-2.3 1.7-5.4-0.5-4.5-3.2l1.6-5c0.4-1.2 0-2.6-1-3.3l-4.3-3.1c-2.3-1.7-1.1-5.3 1.7-5.3h5.3c1.3 0 2.4-0.8 2.8-2l1.6-5c0.9-2.7 4.7-2.7 5.6 0z"/>
					<path id="&lt;Path&gt;" class="s11" d="m397.1 307.8l1.6 5c0.4 1.2 1.6 2 2.8 2h5.3c2.8 0 4 3.6 1.7 5.3l-4.2 3.1c-1.1 0.7-1.5 2.1-1.1 3.3l1.6 5c0.9 2.7-2.2 4.9-4.5 3.2l-4.2-3c-1.1-0.8-2.5-0.8-3.5 0l-4.2 3c-2.3 1.7-5.4-0.5-4.6-3.2l1.7-5c0.4-1.2-0.1-2.6-1.1-3.3l-4.3-3.1c-2.3-1.7-1.1-5.3 1.8-5.3h5.2c1.3 0 2.4-0.8 2.8-2l1.6-5c0.9-2.7 4.7-2.7 5.6 0z"/>
					<path id="&lt;Path&gt;" class="s11" d="m432.1 307.8l1.6 5c0.4 1.2 1.5 2 2.8 2h5.2c2.9 0 4.1 3.6 1.8 5.3l-4.3 3.1c-1 0.7-1.5 2.1-1.1 3.3l1.7 5c0.8 2.7-2.3 4.9-4.6 3.2l-4.2-3c-1-0.8-2.4-0.8-3.5 0l-4.2 3c-2.3 1.7-5.4-0.5-4.5-3.2l1.6-5c0.4-1.2 0-2.6-1.1-3.3l-4.2-3.1c-2.3-1.7-1.1-5.3 1.7-5.3h5.3c1.2 0 2.4-0.8 2.8-2l1.6-5c0.9-2.7 4.7-2.7 5.6 0z"/>
					<path id="&lt;Path&gt;" class="s11" d="m467 307.8l1.6 5c0.4 1.2 1.5 2 2.8 2h5.3c2.8 0 4 3.6 1.7 5.3l-4.3 3.1c-1 0.7-1.4 2.1-1 3.3l1.6 5c0.9 2.7-2.2 4.9-4.5 3.2l-4.3-3c-1-0.8-2.4-0.8-3.4 0l-4.3 3c-2.3 1.7-5.4-0.5-4.5-3.2l1.6-5c0.4-1.2 0-2.6-1-3.3l-4.3-3.1c-2.3-1.7-1.1-5.3 1.7-5.3h5.3c1.3 0 2.4-0.8 2.8-2l1.6-5c0.9-2.7 4.7-2.7 5.6 0z"/>
				</g>
				<g id="&lt;Group&gt;">
					<path id="&lt;Path&gt;" class="s2" d="m445.1 134.7c0 28-22.7 50.8-50.8 50.8-28 0-50.7-22.8-50.7-50.8 0-28 22.7-50.8 50.7-50.8 28.1 0 50.8 22.8 50.8 50.8z"/>
					<g id="&lt;Clip Group&gt;" clip-path="url(#cp3)">
						<g id="&lt;Group&gt;">
							<path id="&lt;Path&gt;" class="s3" d="m359.7 187.1v-23.7c0-6.9 5.6-12.5 12.5-12.5h44.9c6.8 0 12.4 5.6 12.4 12.5v23.7z"/>
							<g id="&lt;Group&gt;">
								<path id="&lt;Path&gt;" class="s12" d="m407.6 150.9h2.9c0 6.8-7.1 12.3-15.9 12.3-8.7 0-15.8-5.5-15.8-12.3h2.2c2.2 0 4-1.7 4-3.9v-9.3h18.6v9.3c0 2.2 1.8 3.9 4 3.9z"/>
								<path id="&lt;Path&gt;" class="s13" d="m381 150.9c2.2 0 4-1.7 4-3.9v-9.3h18.6c-3.3 6.6-10.4 13.2-22.6 13.2z"/>
							</g>
							<path id="&lt;Path&gt;" class="s13" d="m382.1 128c0.7 1.4 0.1 3.1-1.2 3.7-1.3 0.6-2.9-0.2-3.5-1.6-0.7-1.5-0.1-3.2 1.2-3.8 1.3-0.5 2.9 0.2 3.5 1.7z"/>
							<path id="&lt;Path&gt;" class="s13" d="m410.7 126.3c1.3 0.6 1.8 2.3 1.1 3.8-0.6 1.4-2.2 2.2-3.5 1.6-1.3-0.6-1.8-2.3-1.2-3.7 0.7-1.5 2.2-2.2 3.6-1.7z"/>
							<path id="&lt;Path&gt;" class="s12" d="m407.5 128.2c0 8.3-5.8 13.8-12.9 13.8-7.1 0-12.9-5.5-12.9-13.8 0-8.4 5.8-16.5 12.9-16.5 7.1 0 12.9 8.1 12.9 16.5z"/>
							<g id="&lt;Group&gt;">
								<path id="&lt;Path&gt;" class="s6" d="m389.9 127.6c0 0.5-0.5 1-1 1-0.6 0-1.1-0.5-1.1-1 0-0.6 0.5-1.1 1.1-1.1 0.5 0 1 0.5 1 1.1z"/>
								<g id="&lt;Group&gt;">
									<path id="&lt;Path&gt;" class="s6" d="m386.7 125.8c-0.3 0-0.6-0.1-0.7-0.4-0.2-0.4-0.1-0.9 0.3-1.1l2.2-1.1c0.4-0.2 0.9-0.1 1.1 0.3 0.2 0.4 0 0.9-0.4 1.1l-2.1 1.1q-0.2 0.1-0.4 0.1z"/>
								</g>
								<path id="&lt;Path&gt;" class="s6" d="m400.4 126.5c0.6 0 1 0.5 1 1.1 0 0.5-0.4 1-1 1-0.6 0-1.1-0.5-1.1-1 0-0.6 0.5-1.1 1.1-1.1z"/>
								<g id="&lt;Group&gt;">
									<path id="&lt;Path&gt;" class="s6" d="m402.2 125.7l-2.2-1.1c-0.4-0.2-0.6-0.7-0.4-1.1 0.2-0.4 0.7-0.5 1.1-0.3l2.2 1.1c0.4 0.2 0.6 0.7 0.4 1.1-0.2 0.3-0.5 0.4-0.8 0.4q-0.2 0-0.3-0.1z"/>
								</g>
								<path id="&lt;Path&gt;" class="s13" d="m394.4 125.1l0.1 2.4c0 0.4 0.1 0.7 0.1 1.2-0.1 0.4-0.4 0.9-0.8 1.2-0.7 0.3-0.8 0.9-0.5 1.3 0.2 0.5 1 0.6 1.8 0.8v0.1c-0.4 0.1-0.7 0.2-1.2 0.2-0.4 0-0.9-0.2-1.3-0.6-0.4-0.4-0.4-1-0.2-1.5 0.2-0.5 0.7-0.8 1.1-0.9 0.2-0.1 0.4-0.4 0.5-0.7 0.1-0.3 0.1-0.8 0.1-1.1l0.2-2.4z"/>
								<g id="&lt;Group&gt;">
									<path id="&lt;Path&gt;" class="s6" d="m389.2 131.7c0.8 1.2 1.9 2.1 3.2 2.4 1.3 0.4 2.7 0.2 4.1-0.1l-1 0.4c-0.3 0.1-0.7 0.2-1 0.2q-1.1 0.1-2.2-0.1c-1.4-0.4-2.6-1.4-3.1-2.8z"/>
								</g>
							</g>
							<path id="&lt;Path&gt;" class="s6" d="m382.8 112.2c-4.4-9.7 7.2-13.3 11-8.3 4.1 5.4 9.3 2.1 12.7 7.8 4.9 8.4 1 16.5 1 16.5l-4.4-8c-0.5-0.9-1.8-1-2.4-0.1l-0.6 0.9-6-3.8 0.2 3.4-4.5-1.7c-2.4-0.9-5.1 0.4-5.9 2.8l-2.2 6.5c-3-9.9 1.1-16 1.1-16z"/>
						</g>
					</g>
				</g>
			</g>
		</g>
		<g id="&lt;Group&gt;">
			<path id="&lt;Path&gt;" class="s14" d="m246.1 663.7c3 3.4 0.9 6.8 0.9 6.8h-29.9c0 0-1.9-2.3 0.2-5.1z"/>
			<g id="&lt;Group&gt;">
				<path id="&lt;Path&gt;" class="s15" d="m202.9 431.7l-2.1 18c-8 0.2-20.9-1.1-22.8-5.9z"/>
				<path id="&lt;Path&gt;" class="s14" d="m203.7 427.2c0 0-5.9 10.7-8.8 14.5-2.9 3.9-13.7 7.1-16.9 2.1-3.2-4.9 11.3-33.2 14.5-40.4 3.1-7.2 13-17.9 22.1-15.3z"/>
				<path id="&lt;Path&gt;" class="s15" d="m203.7 427.2c0 0-5.9 10.7-8.8 14.5 4-6.1 5.9-30 5.9-30l5.6 5.6z"/>
			</g>
			<path id="&lt;Path&gt;" class="s14" d="m214.6 388.1l40.5 11c0 0 0 21.1 0 26.8 0 11.8 0 19.5-7.9 28.3-5.5 6.1-11.9 17-15.3 31.7l-39.4-14.7c0 0 4.9-20.1 6.8-29 3.2-14.1-3.6-57 15.3-54.1z"/>
			<g id="&lt;Group&gt;">
				<path id="&lt;Path&gt;" class="s14" d="m291.9 383.7c7.1-6.9 15.5-21.8 19.9-30.1 1.6-3.1 5.6-4.1 8.6-2.2l4.2 2.8c2.5 1.6 3.4 4.7 2.2 7.4-4.1 9.5-14 30.7-22.5 39.2-11.1 11.1-36.9 21.6-42.2 26.1-5.2 4.6-8.1 9.2-8.1 9.2-7.8-6.6-7.3-39.9 1.1-37 0 0 26.6-5.5 36.8-15.4z"/>
				<path id="&lt;Path&gt;" class="s3" d="m331.8 305.7l1.6 5c0.4 1.2 1.5 2 2.8 2h5.3c2.8 0 4 3.7 1.7 5.3l-4.3 3.1c-1 0.8-1.4 2.1-1 3.3l1.6 5c0.9 2.7-2.2 5-4.5 3.3l-4.3-3.1c-1-0.8-2.4-0.8-3.4 0l-4.3 3.1c-2.3 1.7-5.4-0.6-4.5-3.3l1.6-5c0.4-1.2 0-2.5-1-3.3l-4.3-3.1c-2.3-1.6-1.1-5.3 1.7-5.3h5.3c1.3 0 2.4-0.8 2.8-2l1.6-5c0.9-2.7 4.7-2.7 5.6 0z"/>
				<g id="&lt;Group&gt;">
					<path id="&lt;Path&gt;" class="s8" d="m335 332.7c0.6 0.4 1.2 0.6 1.7 0.6 0 1.2 0 2.3 0 2.9 0 4.5-10.3 22.8-10.3 22.8l-10.4-8.6c1.1-2.7 2-12.2 2.1-13.9 0.1-1.8 2.8-6.5 2.9-8.4 0.1-1.8 0.3-3 1.7-2.9 1.5 0.1 2.4 1.8 2.8 3 0.4 1.3-0.9 6.2-0.9 6.2 0 0 0.8-2 1.6-4l1.1-0.8c1-0.8 2.4-0.8 3.4 0z"/>
				</g>
			</g>
			<g id="&lt;Group&gt;">
				<path id="&lt;Path&gt;" class="s16" d="m234.7 477.3c-1.9 7 10.9 16.9 10.3 49.2-0.6 30.8-5.6 106-10.5 106-4.9 0-14.8 0-14.8 0-14.5 0-12.2-114.1-12.2-114.1-8.3 80.2-36.4 108.8-36.4 108.8l-18.7-2.5c-10.9-9.7 20.4-67.5 20.4-67.5 0-23.9-7.7-47.8-1.3-68 4.1-12.9 22.3-23.7 25.1-35l42 12.9z"/>
				<path id="&lt;Path&gt;" class="s17" d="m200.2 561.9l4.4-56.7c0 0 2.7 5 2.9 13.2 0.1 11.4-7.3 43.5-7.3 43.5z"/>
			</g>
			<g id="&lt;Group&gt;">
				<path id="&lt;Path&gt;" class="s8" d="m260.7 355.1c5.1 7.9 7.6 26.2-4.1 28.6z"/>
				<path id="&lt;Path&gt;" class="s6" d="m236.3 345.8c0 0 6.9-12 19.4-6.3 11 5.1 11.6 17.3 6 25.3-1.5 2.1-2.1 4.7-1.5 7.3 1.2 5.2 1.9 14.1-4.5 19.7-4.9 4.3 2.5 11-5 18.6h-40.7c0 0-5.8-9.8 0-17.4 5.8-7.5 10.1-7.8 10.1-11.3 0-3.5-5.8-12 2.2-20.1 0 0 0-14.7 14-15.8z"/>
			</g>
			<path id="&lt;Path&gt;" class="s8" d="m169 626.9l-3.3 9.4c-0.1 0.3-2.7 6.7-4.2 2.1-1.3-3.9-2.3-5.9-4.7-5.9-3.5 0-5.6 3.9-5.6 3.9l1-2.8 1.4-8.7z"/>
			<g id="&lt;Group&gt;">
				<path id="&lt;Path&gt;" class="s6" d="m147.4 645.6c0-3.9 1.2-6 2.7-6.8l1.1-2.4c0 0 2.1-3.9 5.6-3.9 2.4 0 3.4 2 4.7 5.9 1.5 4.6 4.1-1.8 4.2-2.1 0 0 0.6 2.8 0 6.1-0.6 3.2-1.4 7.9-1.5 12.6-0.1 8.2 2.7 7.3 0.8 13z"/>
				<path id="&lt;Path&gt;" class="s14" d="m147.4 645.6c-0.1-3.3 2.6-6.2 5.9-6q1 0 2.2 0.4c3.7 1.2 5.7 5.1 5.7 7.8 0 2.6 0 7.1 0 9 0 1.8 6.3 7.5 3.3 12.5-0.5 0.8-1.4 1.2-2.3 1.2h-8.5c-2.5 0-4.9-1-6.5-3-4-4.9 0.3-10.7 0.3-14.8 0-1.8 0-4.9-0.1-7.1z"/>
			</g>
			<path id="&lt;Path&gt;" class="s8" d="m234.5 632.5l-1 23-10.8 1.1-3-24.1z"/>
			<path id="&lt;Path&gt;" class="s6" d="m216.6 666.6c-0.7-2.9 0.5-5.4 2.8-8.4 2.6-3.3 1.2-5.1 4.6-6 3.5-0.9 6.8 2.7 9.5 3.3l0.2-3.5c0 0 1.2 0.3 1.4 1.2 0.9 3.2 3.4 6.6 5.9 7.1 2.7 0.4 4.9 0.8 6 2.1 1.5 2 0.6 4.2 0.6 4.2z"/>
		</g>
		<path id="&lt;Path&gt;" class="s1" d="m378.6 636.4c6.1-6.9 14.2-11.7 23-14-2.1-15.6-1.2-31.8 5.5-46 7.4-15.4 22.9-27.7 40-27.7 17.1-0.1 34 14.6 33.1 31.7 7.8-32.6 42.1-56.6 75.4-52.9 33.3 3.8 61.4 34.8 61.7 68.4 6.4-10.9 23.1-10.4 33.4-3.2 10.2 7.3 16.4 18.8 24.4 28.5 8 9.7 20.1 18.2 32.3 15.2 2-0.5 3.9-1.3 5.8-2.2 11.1-5.8 19.8-18.4 32.1-16.9 13.9 1.8 18.3 21.9 10.4 33.5q-1.3 1.9-2.8 3.5c12 1 22.4 7.5 29 16.8-19.4 0-324 0-414.6 0-0.9-12.4 3-25.3 11.3-34.7z"/>
		<g id="&lt;Group&gt;">
			<g id="&lt;Group&gt;">
				<g id="&lt;Group&gt;">
					<path id="&lt;Path&gt;" class="s11" d="m694.1 557.3l-162.9-103.2 17.8-28 162.8 103.2c7.8 4.9 10.1 15.2 5.2 22.9-4.9 7.7-15.2 10-22.9 5.1z"/>
					<path id="&lt;Path&gt;" class="s18" d="m555.8 472.6l-25.9-16.4 20.4-32.2 25.9 16.4c0.3 1.4 0.4 2.1 0.8 3.5l-17.7 27.9c-1.4 0.3-2.2 0.4-3.5 0.8z"/>
				</g>
				<g id="&lt;Group&gt;">
					<g id="&lt;Group&gt;">
						<path id="&lt;Compound Path&gt;" fill-rule="evenodd" class="s6" d="m561 403.4c-13.6 60.1-73.4 97.9-133.5 84.3-60.1-13.6-97.8-73.4-84.2-133.5 13.6-60.1 73.3-97.8 133.4-84.2 60.1 13.6 97.8 73.3 84.3 133.4zm-20-4.5c11.1-49.1-19.7-97.9-68.8-109-49.1-11.1-97.9 19.8-109 68.8-11.1 49.1 19.7 97.9 68.8 109 49.1 11.1 97.9-19.7 109-68.8z"/>
						<path id="&lt;Path&gt;" class="s19" d="m431.1 471.9c-50.3-11.4-81.8-61.3-70.4-111.6 11.3-50.2 61.3-81.7 111.5-70.4 50.2 11.4 81.8 61.3 70.4 111.6-11.3 50.2-61.3 81.7-111.5 70.4z"/>
						<g id="&lt;Group&gt;">
							<g id="&lt;Group&gt;">
								<path id="&lt;Mesh&gt;" class="s20" d="m442.8 452.2q-0.2 1.4-0.2 1.4 0 0-1.8 0c-1.3 0-3.1-0.1-5.6 0q0 0 0.1-0.3c2.6-0.5 4.4-0.7 5.6-0.9q1.9-0.2 1.9-0.2zm7.5-1.4q-0.1 2.4-0.1 2.4-3.8 0.2-7.6 0.4 0 0 0.2-1.4 3.7-0.7 7.5-1.4zm6.3-1.5q0.2 3.1 0.2 3.1-3.3 0.4-6.6 0.8 0 0 0.1-2.4 3.1-0.7 6.3-1.5zm6.5-1.9q0.6 3.6 0.6 3.6-3.4 0.7-6.9 1.4 0 0-0.2-3.1c2.2-0.6 4.3-1.4 6.5-1.9zm6.2-2.3q1.1 4 1.1 4c-2.2 0.6-4.4 1.3-6.7 1.9q0 0-0.6-3.6c1-0.3 2.1-0.8 3.1-1.2q1.6-0.5 3.1-1.1zm6-2.5q1.6 4 1.6 4-3.3 1.2-6.5 2.5 0 0-1.1-4 3-1.3 6-2.5zm5.8-3q2 4.1 2 4.1-3.1 1.5-6.2 2.9 0 0-1.6-4 2.9-1.5 5.8-3zm5.6-3.2q2.4 3.9 2.4 3.9-3 1.7-6 3.4 0 0-2-4.1 2.8-1.6 5.6-3.2zm5.3-3.6q2.8 3.5 2.8 3.5-2.8 2-5.7 4 0 0-2.4-3.9 2.6-1.8 5.3-3.6zm5.1-4q3 3.2 3 3.2-2.6 2.1-5.3 4.3 0 0-2.8-3.5 2.6-2 5.1-4zm5-4.3q3 2.7 3 2.7-2.5 2.4-5 4.8 0 0-3-3.2c1.6-1.4 3.3-2.9 5-4.3zm4.7-4.7q2.9 2.1 2.9 2.1c-1.5 1.8-3.1 3.5-4.6 5.3q0 0-3-2.7c1.4-1.6 3.1-3.1 4.7-4.7zm4.5-5q2.7 1.5 2.7 1.5-2.1 2.8-4.3 5.6 0 0-2.9-2.1c1.4-1.6 3-3.3 4.5-5zm4.3-5.4q2.2 0.9 2.2 0.9c-1.2 2.1-2.6 4-3.8 6q0 0-2.7-1.5c1.4-1.8 2.9-3.6 4.3-5.4zm4.2-5.9q1.4 0.5 1.4 0.5-1.7 3.2-3.4 6.3 0 0-2.2-0.9 2.1-2.9 4.2-5.9zm4.3-6.2q0.2 0 0.2 0c-1.1 2.3-1.8 3.9-2.3 5q-0.8 1.7-0.8 1.7 0 0-1.4-0.5 0 0 1-1.5c0.7-1 1.7-2.6 3.3-4.7zm-81.5 56.3q-0.1 0.4-0.1 0.8c0 0-2.4-0.3-7.3-0.7q0-0.1 0-0.1c2.5-0.1 4.3 0 5.6 0q1.8 0 1.8 0zm7.6-0.4q0 0.6 0 1.3-3.8-0.1-7.7-0.1 0-0.4 0.1-0.8 3.8-0.2 7.6-0.4zm6.6-0.8q0.1 0.8 0.1 1.5-3.3 0.3-6.7 0.6 0-0.7 0-1.3 3.3-0.4 6.6-0.8zm6.9-1.4q0.2 0.9 0.3 1.8c-2.3 0.3-4.7 0.8-7.1 1.1q0-0.7-0.1-1.5 3.5-0.7 6.9-1.4zm6.7-1.9q0.3 0.9 0.5 1.9c-2.3 0.6-4.6 1.3-6.9 1.8q-0.1-0.9-0.3-1.8c2.3-0.6 4.5-1.3 6.7-1.9zm6.5-2.5q0.4 1 0.8 2.1c-2.3 0.7-4.5 1.6-6.8 2.3q-0.2-1-0.5-1.9 3.2-1.3 6.5-2.5zm6.2-2.9q0.5 1 1.1 2-3.3 1.5-6.5 3-0.4-1.1-0.8-2.1 3.1-1.4 6.2-2.9zm6-3.4q0.6 0.9 1.2 1.9-3.1 1.7-6.1 3.5-0.6-1-1.1-2 3-1.7 6-3.4zm5.7-4q0.7 0.9 1.4 1.8-2.9 2.1-5.9 4.1-0.6-1-1.2-1.9 2.9-2 5.7-4zm5.3-4.3q0.8 0.8 1.5 1.5-2.7 2.3-5.4 4.6-0.7-0.9-1.4-1.8 2.7-2.2 5.3-4.3zm5-4.8q0.8 0.6 1.6 1.3c-1.7 1.7-3.4 3.4-5.1 5q-0.7-0.7-1.5-1.5 2.5-2.4 5-4.8zm4.6-5.3q0.8 0.6 1.5 1.1c-1.4 1.9-3 3.6-4.5 5.5q-0.8-0.7-1.6-1.3c1.5-1.8 3.1-3.5 4.6-5.3zm4.3-5.6q0.6 0.4 1.3 0.8c-1.3 2-2.7 3.9-4.1 5.9q-0.7-0.5-1.5-1.1 2.2-2.8 4.3-5.6zm3.8-6q0.5 0.3 1.1 0.5c-1.2 2.1-2.4 4.2-3.6 6.3q-0.7-0.4-1.3-0.8c1.2-2 2.6-3.9 3.8-6zm3.4-6.3q0.4 0.1 0.7 0.2-1.5 3.3-3 6.6-0.6-0.2-1.1-0.5 1.7-3.1 3.4-6.3zm3.1-6.7q0.1 0 0.2 0.1c-1.8 4.6-2.6 6.8-2.6 6.8q-0.3-0.1-0.7-0.2 0 0 0.8-1.7c0.5-1.1 1.2-2.7 2.3-5zm-81.8 57.1q0 0.1-0.1 0.3 0 0-7.2-0.9 0-0.1 0-0.1c4.9 0.4 7.3 0.7 7.3 0.7zm7.7 0.1q0 0.3 0 0.6c-2.6-0.2-5.2-0.2-7.8-0.4q0.1-0.2 0.1-0.3 3.9 0 7.7 0.1zm6.7-0.6q0.1 0.4 0.1 0.8-3.4 0.2-6.8 0.4 0-0.3 0-0.6 3.4-0.3 6.7-0.6zm7.1-1.1q0.1 0.4 0.2 0.9c-2.4 0.3-4.8 0.7-7.2 1q0-0.4-0.1-0.8c2.4-0.3 4.8-0.8 7.1-1.1zm6.9-1.8q0.2 0.5 0.3 1c-2.3 0.6-4.7 1.2-7 1.7q-0.1-0.5-0.2-0.9c2.3-0.5 4.6-1.2 6.9-1.8zm6.8-2.3q0.2 0.5 0.4 1c-2.3 0.7-4.6 1.6-6.9 2.3q-0.1-0.5-0.3-1c2.3-0.7 4.5-1.6 6.8-2.3zm6.5-3q0.2 0.5 0.5 1c-2.2 1-4.4 2-6.6 3q-0.2-0.5-0.4-1 3.2-1.5 6.5-3zm6.1-3.5q0.3 0.5 0.6 1-3.1 1.7-6.2 3.5-0.3-0.5-0.5-1 3-1.8 6.1-3.5zm5.9-4.1q0.3 0.5 0.7 0.9-3 2.1-6 4.2-0.3-0.5-0.6-1 3-2 5.9-4.1zm5.4-4.6q0.4 0.4 0.8 0.8c-1.8 1.6-3.7 3.2-5.5 4.7q-0.4-0.4-0.7-0.9 2.7-2.3 5.4-4.6zm5.1-5q0.3 0.3 0.7 0.7c-1.6 1.7-3.3 3.4-5 5.1q-0.4-0.4-0.8-0.8c1.7-1.6 3.4-3.3 5.1-5zm4.5-5.5q0.4 0.2 0.8 0.5c-1.5 1.9-3.1 3.8-4.6 5.7q-0.4-0.4-0.7-0.7c1.5-1.9 3.1-3.6 4.5-5.5zm4.1-5.9q0.3 0.2 0.7 0.4c-1.3 2-2.7 4-4 6q-0.4-0.3-0.8-0.5c1.4-2 2.8-3.9 4.1-5.9zm3.6-6.3q0.2 0.1 0.5 0.3c-1.1 2.1-2.3 4.2-3.4 6.4q-0.4-0.2-0.7-0.4c1.2-2.1 2.4-4.2 3.6-6.3zm3-6.6q0.2 0.1 0.4 0.1c-1 2.3-1.9 4.5-2.9 6.8q-0.3-0.2-0.5-0.3 1.5-3.3 3-6.6zm2.6-6.8q0 0 0 0-2.2 6.9-2.2 6.9-0.2 0-0.4-0.1c0 0 0.8-2.2 2.6-6.8zm-82.1 57.3q0 0.2 0 0.4 0 0-7.2-1.3 0 0 0 0 7.2 0.9 7.2 0.9zm7.8 0.4q0 0.3 0 0.6c-2.6-0.2-5.2-0.4-7.8-0.6q0-0.2 0-0.4c2.6 0.2 5.2 0.2 7.8 0.4zm6.8-0.4q0 0.4 0 0.8-3.4 0.1-6.8 0.2 0-0.3 0-0.6 3.4-0.2 6.8-0.4zm7.2-1q0 0.4 0.1 0.9c-2.4 0.3-4.8 0.7-7.3 0.9q0-0.4 0-0.8c2.4-0.3 4.8-0.7 7.2-1zm7-1.7q0.2 0.5 0.3 1c-2.4 0.5-4.8 1.1-7.2 1.6q-0.1-0.5-0.1-0.9c2.3-0.5 4.7-1.1 7-1.7zm6.9-2.3q0.2 0.5 0.4 1c-2.4 0.8-4.7 1.6-7 2.3q-0.1-0.5-0.3-1c2.3-0.7 4.6-1.6 6.9-2.3zm6.6-3q0.2 0.5 0.5 1c-2.3 1-4.5 2.1-6.7 3q-0.2-0.5-0.4-1c2.2-1 4.4-2 6.6-3zm6.2-3.5q0.4 0.4 0.7 0.9-3.2 1.8-6.4 3.6-0.3-0.5-0.5-1 3.1-1.8 6.2-3.5zm6-4.2q0.3 0.5 0.7 0.9-3 2.1-6 4.2-0.3-0.5-0.7-0.9 3-2.1 6-4.2zm5.5-4.7q0.3 0.4 0.7 0.8c-1.8 1.7-3.7 3.2-5.5 4.8q-0.4-0.4-0.7-0.9c1.8-1.5 3.7-3.1 5.5-4.7zm5-5.1q0.4 0.3 0.8 0.6c-1.6 1.8-3.4 3.5-5.1 5.3q-0.4-0.4-0.7-0.8c1.7-1.7 3.4-3.4 5-5.1zm4.6-5.7q0.3 0.3 0.7 0.5c-1.4 2-3 3.9-4.5 5.8q-0.4-0.3-0.8-0.6c1.5-1.9 3.1-3.8 4.6-5.7zm4-6q0.3 0.2 0.6 0.3c-1.2 2.2-2.6 4.2-3.9 6.2q-0.4-0.2-0.7-0.5c1.3-2 2.7-4 4-6zm3.4-6.4q0.3 0.1 0.6 0.2c-1.1 2.2-2.3 4.4-3.4 6.5q-0.3-0.1-0.6-0.3c1.1-2.2 2.3-4.3 3.4-6.4zm2.9-6.8q0.1 0.1 0.3 0.2c-0.8 2.3-1.8 4.5-2.6 6.8q-0.3-0.1-0.6-0.2c1-2.3 1.9-4.5 2.9-6.8zm2.2-6.9q0 0 0.1 0-2 7.1-2 7.1-0.2-0.1-0.3-0.2 0 0 2.2-6.9zm-82.1 57.7q0 0.1 0 0.1 0 0-7.3-1.2 0-0.1 0.1-0.2 7.2 1.3 7.2 1.3zm7.8 0.6q0 0.1 0 0.2c-2.6-0.2-5.2-0.4-7.8-0.7q0 0 0-0.1c2.6 0.2 5.2 0.4 7.8 0.6zm6.8-0.2q0.1 0.1 0.1 0.2-3.5 0.1-6.9 0.2 0-0.1 0-0.2 3.4-0.1 6.8-0.2zm7.3-0.9q0 0.1 0.1 0.2c-2.5 0.3-4.9 0.7-7.3 0.9q0-0.1-0.1-0.2c2.5-0.2 4.9-0.6 7.3-0.9zm7.2-1.6q0 0.1 0 0.2c-2.3 0.5-4.7 1.1-7.1 1.6q-0.1-0.1-0.1-0.2c2.4-0.5 4.8-1.1 7.2-1.6zm7-2.3q0 0.1 0 0.2c-2.3 0.8-4.6 1.6-7 2.3q0-0.1 0-0.2c2.3-0.7 4.6-1.5 7-2.3zm6.7-3q0 0.1 0.1 0.3c-2.3 0.9-4.5 2-6.8 2.9q0-0.1 0-0.2c2.2-0.9 4.4-2 6.7-3zm6.4-3.6q0 0.1 0.1 0.2-3.2 1.8-6.4 3.7-0.1-0.2-0.1-0.3 3.2-1.8 6.4-3.6zm6-4.2q0 0.1 0.1 0.2-3 2.1-6 4.2-0.1-0.1-0.1-0.2 3-2.1 6-4.2zm5.5-4.8q0.1 0.1 0.2 0.2c-1.8 1.6-3.7 3.2-5.6 4.8q-0.1-0.1-0.1-0.2c1.8-1.6 3.7-3.1 5.5-4.8zm5.1-5.3q0.1 0.1 0.2 0.2c-1.7 1.8-3.4 3.5-5.1 5.3q-0.1-0.1-0.2-0.2c1.7-1.8 3.5-3.5 5.1-5.3zm4.5-5.8q0.1 0.1 0.2 0.2c-1.5 1.9-3 3.8-4.5 5.8q-0.1-0.1-0.2-0.2c1.5-1.9 3.1-3.8 4.5-5.8zm3.9-6.2q0.1 0.1 0.2 0.1c-1.2 2.2-2.6 4.2-3.9 6.3q-0.1-0.1-0.2-0.2c1.3-2 2.7-4 3.9-6.2zm3.4-6.5q0 0 0.1 0.1c-1 2.2-2.2 4.4-3.3 6.5q-0.1 0-0.2-0.1c1.1-2.1 2.3-4.3 3.4-6.5zm2.6-6.8q0.1 0 0.1 0c-0.8 2.3-1.7 4.6-2.6 6.9q-0.1-0.1-0.1-0.1c0.8-2.3 1.8-4.5 2.6-6.8zm2-7.1q0 0 0.1 0-2 7.1-2 7.1 0 0-0.1 0 0 0 2-7.1zm-82.2 57.8q0 0.1 0 0.1 0 0-7.3-1.3 0 0 0 0 7.3 1.2 7.3 1.2zm7.8 0.7q0 0 0 0.1c-2.6-0.3-5.2-0.4-7.8-0.7q0 0 0-0.1c2.6 0.3 5.2 0.5 7.8 0.7zm6.9-0.2q0 0 0 0.1-3.5 0.1-6.9 0.2 0-0.1 0-0.1 3.4-0.1 6.9-0.2zm7.3-0.9q0 0 0 0.1c-2.5 0.3-4.9 0.7-7.3 0.9q0-0.1 0-0.1c2.4-0.2 4.8-0.6 7.3-0.9zm7.1-1.6q0.1 0.1 0.1 0.1c-2.4 0.5-4.8 1.2-7.2 1.6q0-0.1 0-0.1c2.4-0.5 4.8-1.1 7.1-1.6zm7-2.3q0.1 0.1 0.1 0.1c-2.4 0.8-4.7 1.6-7 2.3q0 0-0.1-0.1c2.4-0.7 4.7-1.5 7-2.3zm6.8-2.9q0 0 0 0.1c-2.2 0.9-4.4 2-6.7 2.9q0 0-0.1-0.1c2.3-0.9 4.5-2 6.8-2.9zm6.4-3.7q0 0.1 0.1 0.2-3.3 1.8-6.5 3.6 0-0.1 0-0.1 3.2-1.9 6.4-3.7zm6-4.2q0 0 0.1 0.1-3 2.1-6 4.3-0.1-0.1-0.1-0.2 3-2.1 6-4.2zm5.6-4.8q0 0 0.1 0.1c-1.9 1.6-3.8 3.2-5.6 4.8q-0.1-0.1-0.1-0.1c1.9-1.6 3.8-3.2 5.6-4.8zm5.1-5.3q0 0 0 0c-1.6 1.9-3.3 3.6-5 5.4q-0.1-0.1-0.1-0.1c1.7-1.8 3.4-3.5 5.1-5.3zm4.5-5.8q0 0 0.1 0c-1.5 2-3.1 3.9-4.6 5.8q0 0 0 0c1.5-2 3-3.9 4.5-5.8zm3.9-6.3q0.1 0.1 0.1 0.1c-1.2 2.1-2.6 4.1-3.9 6.2q-0.1 0-0.1 0c1.3-2.1 2.7-4.1 3.9-6.3zm3.3-6.5q0.1 0 0.1 0c-1 2.2-2.2 4.4-3.3 6.6q0 0-0.1-0.1c1.1-2.1 2.3-4.3 3.3-6.5zm2.6-6.9q0.1 0 0.1 0c-0.8 2.3-1.7 4.6-2.6 6.9q0 0-0.1 0c0.9-2.3 1.8-4.6 2.6-6.9zm2-7.1q0 0 0.1 0-2 7.1-2 7.1 0 0-0.1 0 0 0 2-7.1zm-82.3 57.9q0 0.1 0 0.1 0 0-7.3-1.3 0 0 0-0.1 7.3 1.3 7.3 1.3zm7.8 0.7q0 0 0 0.1c-2.6-0.3-5.2-0.4-7.8-0.7q0 0 0-0.1c2.6 0.3 5.2 0.4 7.8 0.7zm6.9-0.2q0 0 0 0.1-3.5 0.1-6.9 0.2 0-0.1 0-0.1 3.4-0.1 6.9-0.2zm7.3-0.9q0 0.1 0 0.1c-2.4 0.3-4.9 0.7-7.3 0.9q0-0.1 0-0.1c2.4-0.2 4.8-0.6 7.3-0.9zm7.2-1.6q0 0.1 0 0.1c-2.4 0.5-4.8 1.2-7.2 1.6q0 0 0-0.1c2.4-0.4 4.8-1.1 7.2-1.6zm7-2.3q0 0.1 0 0.1c-2.3 0.8-4.6 1.6-7 2.3q0 0 0-0.1c2.3-0.7 4.6-1.5 7-2.3zm6.7-2.9q0.1 0 0.1 0.1c-2.3 1-4.5 2-6.8 2.9q0 0 0-0.1c2.3-0.9 4.5-2 6.7-2.9zm6.5-3.6q0 0 0 0.1-3.2 1.8-6.4 3.6 0-0.1-0.1-0.1 3.2-1.8 6.5-3.6zm6-4.3q0 0 0.1 0.1-3.1 2.1-6.1 4.3 0-0.1 0-0.1 3-2.2 6-4.3zm5.6-4.8q0 0 0 0.1c-1.8 1.6-3.7 3.2-5.5 4.8q-0.1-0.1-0.1-0.1c1.8-1.6 3.7-3.2 5.6-4.8zm5-5.4q0.1 0.1 0.1 0.1c-1.6 1.8-3.4 3.6-5.1 5.4q0-0.1 0-0.1c1.7-1.8 3.4-3.5 5-5.4zm4.6-5.8q0 0.1 0.1 0.1c-1.5 2-3.1 3.9-4.6 5.8q0 0-0.1-0.1c1.5-1.9 3.1-3.8 4.6-5.8zm3.9-6.2q0.1 0 0.1 0c-1.2 2.2-2.6 4.2-3.9 6.3q-0.1 0-0.1-0.1c1.3-2.1 2.7-4.1 3.9-6.2zm3.3-6.6q0.1 0 0.1 0c-1 2.3-2.2 4.4-3.3 6.6q0 0-0.1 0c1.1-2.2 2.3-4.4 3.3-6.6zm2.6-6.9q0.1 0 0.1 0.1c-0.8 2.3-1.7 4.5-2.6 6.8q0 0-0.1 0c0.9-2.3 1.8-4.6 2.6-6.9zm2-7.1q0 0 0 0-1.9 7.2-1.9 7.2 0-0.1-0.1-0.1 0 0 2-7.1zm-82.4 58q-0.1 0-0.1 0.1 0 0-7.2-1.4 0 0 0 0 7.3 1.3 7.3 1.3zm7.8 0.7q0 0 0 0.1c-2.6-0.3-5.3-0.4-7.9-0.7q0-0.1 0.1-0.1c2.6 0.3 5.2 0.4 7.8 0.7zm6.9-0.2q0 0 0 0.1-3.5 0.1-6.9 0.2 0-0.1 0-0.1 3.4-0.1 6.9-0.2zm7.3-0.9q0 0.1 0 0.1c-2.4 0.3-4.9 0.7-7.3 0.9q0-0.1 0-0.1c2.4-0.2 4.9-0.6 7.3-0.9zm7.2-1.6q0 0.1 0 0.1c-2.4 0.5-4.8 1.2-7.2 1.6q0 0 0-0.1c2.4-0.4 4.8-1.1 7.2-1.6zm7-2.3q0 0.1 0.1 0.1c-2.4 0.8-4.7 1.6-7.1 2.3q0 0 0-0.1c2.4-0.7 4.7-1.5 7-2.3zm6.8-2.9q0 0 0 0.1c-2.2 1-4.5 2-6.7 2.9q-0.1 0-0.1-0.1c2.3-0.9 4.5-1.9 6.8-2.9zm6.4-3.6q0.1 0 0.1 0.1-3.2 1.8-6.5 3.6 0-0.1 0-0.1 3.2-1.8 6.4-3.6zm6.1-4.3q0 0 0 0.1-3 2.1-6 4.3 0-0.1-0.1-0.1 3-2.2 6.1-4.3zm5.5-4.8q0.1 0 0.1 0c-1.8 1.7-3.7 3.3-5.6 4.9q0-0.1 0-0.1c1.8-1.6 3.7-3.2 5.5-4.8zm5.1-5.4q0.1 0 0.1 0.1c-1.6 1.8-3.4 3.6-5.1 5.3q0 0-0.1 0c1.7-1.8 3.5-3.6 5.1-5.4zm4.6-5.8q0 0 0 0c-1.4 2-3 3.9-4.5 5.9q0-0.1-0.1-0.1c1.5-1.9 3.1-3.8 4.6-5.8zm3.9-6.3q0 0.1 0.1 0.1c-1.3 2.1-2.6 4.2-4 6.2q0 0 0 0c1.3-2.1 2.7-4.1 3.9-6.3zm3.3-6.6q0 0.1 0.1 0.1c-1 2.2-2.2 4.4-3.3 6.6q-0.1 0-0.1-0.1c1.1-2.2 2.3-4.3 3.3-6.6zm2.6-6.8q0 0 0.1 0c-0.8 2.3-1.8 4.6-2.6 6.9q-0.1 0-0.1-0.1c0.9-2.3 1.8-4.5 2.6-6.8zm1.9-7.2q0.1 0 0.1 0.1-1.9 7.1-1.9 7.1-0.1 0-0.1 0 0 0 1.9-7.2zm-82.5 58.1q0 0 0 0.1 0 0-7.2-1.4 0 0 0-0.1 7.2 1.4 7.2 1.4zm7.9 0.7q0 0 0 0c-2.6-0.2-5.3-0.4-7.9-0.6q0-0.1 0-0.1c2.6 0.3 5.3 0.4 7.9 0.7zm6.9-0.2q0 0 0 0.1-3.5 0.1-6.9 0.1 0 0 0 0 3.4-0.1 6.9-0.2zm7.3-0.9q0 0.1 0 0.1c-2.4 0.3-4.9 0.7-7.3 0.9q0-0.1 0-0.1c2.4-0.2 4.9-0.6 7.3-0.9zm7.2-1.6q0.1 0.1 0.1 0.1c-2.4 0.6-4.8 1.2-7.3 1.6q0 0 0-0.1c2.4-0.4 4.8-1.1 7.2-1.6zm7.1-2.3q0 0.1 0 0.1c-2.3 0.8-4.7 1.6-7 2.3q0 0-0.1-0.1c2.4-0.7 4.7-1.5 7.1-2.3zm6.7-2.9q0.1 0 0.1 0.1c-2.3 1-4.5 2-6.8 2.9q0 0 0-0.1c2.2-0.9 4.5-1.9 6.7-2.9zm6.5-3.6q0 0 0.1 0.1-3.3 1.8-6.5 3.6 0-0.1-0.1-0.1 3.3-1.8 6.5-3.6zm6-4.3q0.1 0 0.1 0.1-3 2.1-6 4.3-0.1-0.1-0.1-0.1 3-2.2 6-4.3zm5.6-4.9q0.1 0.1 0.1 0.1c-1.8 1.7-3.7 3.3-5.6 4.9q0-0.1-0.1-0.1c1.9-1.6 3.8-3.2 5.6-4.9zm5.1-5.3q0.1 0 0.1 0.1c-1.6 1.8-3.4 3.5-5.1 5.3q0 0-0.1-0.1c1.7-1.7 3.5-3.5 5.1-5.3zm4.5-5.9q0.1 0.1 0.1 0.1c-1.4 2-3 3.9-4.5 5.9q0-0.1-0.1-0.1c1.5-2 3.1-3.9 4.5-5.9zm4-6.2q0 0 0.1 0c-1.3 2.2-2.7 4.2-4 6.3q0 0-0.1-0.1c1.4-2 2.7-4.1 4-6.2zm3.3-6.6q0 0 0.1 0c-1.1 2.3-2.2 4.4-3.3 6.6q-0.1 0-0.1 0c1.1-2.2 2.3-4.4 3.3-6.6zm2.6-6.9q0 0 0 0c-0.8 2.3-1.7 4.6-2.5 6.9q-0.1 0-0.1 0c0.8-2.3 1.8-4.6 2.6-6.9zm1.9-7.1q0 0 0 0-1.9 7.1-1.9 7.1 0 0 0 0 0 0 1.9-7.1zm-82.6 58.1q0 0 0 0 0 0-7.2-1.3 0-0.1 0-0.1 7.2 1.4 7.2 1.4zm7.9 0.6q0 0.1 0 0.1c-2.6-0.2-5.3-0.4-7.9-0.7q0 0 0 0c2.6 0.2 5.3 0.4 7.9 0.6zm6.9-0.1q0 0 0 0.1-3.5 0.1-6.9 0.1 0 0 0-0.1 3.4 0 6.9-0.1zm7.3-0.9q0 0.1 0.1 0.1c-2.5 0.3-4.9 0.7-7.4 0.9q0-0.1 0-0.1c2.4-0.2 4.9-0.6 7.3-0.9zm7.3-1.6q0 0.1 0 0.1c-2.4 0.6-4.8 1.2-7.2 1.6q-0.1 0-0.1-0.1c2.5-0.4 4.9-1 7.3-1.6zm7-2.3q0 0.1 0 0.2c-2.3 0.7-4.6 1.5-7 2.2q0 0 0-0.1c2.3-0.7 4.7-1.5 7-2.3zm6.8-2.9q0 0 0.1 0.1c-2.3 1-4.6 2-6.9 3q0-0.1 0-0.2c2.3-0.9 4.5-1.9 6.8-2.9zm6.5-3.6q0 0 0 0.1-3.2 1.8-6.4 3.6-0.1-0.1-0.1-0.1 3.2-1.8 6.5-3.6zm6-4.3q0 0 0.1 0.1-3 2.1-6.1 4.3 0-0.1 0-0.1 3-2.2 6-4.3zm5.6-4.9q0 0.1 0.1 0.1c-1.8 1.7-3.7 3.3-5.6 4.9q-0.1-0.1-0.1-0.1c1.9-1.6 3.8-3.2 5.6-4.9zm5.1-5.3q0 0 0.1 0c-1.7 1.9-3.4 3.6-5.1 5.4q-0.1 0-0.1-0.1c1.7-1.8 3.5-3.5 5.1-5.3zm4.5-5.9q0.1 0 0.1 0.1c-1.4 2-3 3.9-4.5 5.8q-0.1 0-0.1 0c1.5-2 3.1-3.9 4.5-5.9zm4-6.3q0 0.1 0.1 0.1c-1.3 2.1-2.7 4.2-4 6.3q0-0.1-0.1-0.1c1.3-2.1 2.7-4.1 4-6.3zm3.3-6.6q0 0 0.1 0.1c-1.1 2.2-2.2 4.4-3.3 6.6q-0.1 0-0.1-0.1c1.1-2.2 2.2-4.3 3.3-6.6zm2.5-6.9q0.1 0 0.1 0c-0.8 2.4-1.7 4.6-2.5 7q-0.1-0.1-0.1-0.1c0.8-2.3 1.7-4.6 2.5-6.9zm1.9-7.1q0.1 0 0.1 0-1.9 7.1-1.9 7.1 0 0-0.1 0 0 0 1.9-7.1zm-82.6 58.1q0 0 0 0.1 0 0-7.2-1.4 0 0 0 0 7.2 1.3 7.2 1.3zm7.9 0.7q0 0 0 0.1c-2.6-0.2-5.3-0.4-7.9-0.7q0-0.1 0-0.1c2.6 0.3 5.3 0.5 7.9 0.7zm6.9-0.1q0 0 0 0.1-3.5 0.1-6.9 0.1 0-0.1 0-0.1 3.4 0 6.9-0.1zm7.4-0.9q0 0 0 0.1c-2.5 0.3-4.9 0.7-7.4 0.9q0-0.1 0-0.1c2.5-0.2 4.9-0.6 7.4-0.9zm7.2-1.6q0 0 0 0.1c-2.4 0.6-4.8 1.2-7.2 1.6q0-0.1 0-0.1c2.4-0.4 4.8-1 7.2-1.6zm7-2.2q0 0 0.1 0.1c-2.4 0.7-4.7 1.6-7.1 2.2q0-0.1 0-0.1c2.4-0.7 4.7-1.5 7-2.2zm6.9-3q0 0 0 0.1c-2.3 1-4.5 2-6.8 3q-0.1-0.1-0.1-0.1c2.3-1 4.6-2 6.9-3zm6.4-3.6q0 0 0.1 0.1-3.2 1.8-6.5 3.6 0-0.1 0-0.1 3.2-1.8 6.4-3.6zm6.1-4.3q0 0 0.1 0.1-3.1 2.1-6.1 4.3-0.1-0.1-0.1-0.1 3.1-2.2 6.1-4.3zm5.6-4.9q0 0 0.1 0.1c-1.9 1.7-3.8 3.2-5.6 4.9q-0.1-0.1-0.1-0.1c1.9-1.6 3.8-3.2 5.6-4.9zm5.1-5.4q0 0 0.1 0.1c-1.7 1.8-3.4 3.6-5.1 5.4q-0.1-0.1-0.1-0.1c1.7-1.8 3.4-3.5 5.1-5.4zm4.5-5.8q0 0 0.1 0c-1.4 2-3 3.9-4.5 5.9q-0.1-0.1-0.1-0.1c1.5-1.9 3.1-3.8 4.5-5.8zm4-6.3q0 0 0 0c-1.2 2.2-2.6 4.2-3.9 6.3q-0.1 0-0.1 0c1.3-2.1 2.7-4.2 4-6.3zm3.3-6.6q0 0 0 0c-1 2.3-2.2 4.4-3.3 6.6q0 0 0 0c1.1-2.2 2.2-4.4 3.3-6.6zm2.5-7q0 0 0.1 0.1c-0.8 2.3-1.7 4.6-2.6 6.9q0 0 0 0c0.8-2.4 1.7-4.6 2.5-7zm1.9-7.1q0 0 0.1 0-1.9 7.2-1.9 7.2-0.1-0.1-0.1-0.1 0 0 1.9-7.1z"/>
							</g>
						</g>
						<path id="&lt;Compound Path&gt;" fill-rule="evenodd" class="s16" d="m558.7 413.4c-13.6 60.1-73.3 97.8-133.4 84.2-60.1-13.6-97.9-73.3-84.3-133.4 13.6-60.1 73.4-97.9 133.5-84.3 60.1 13.6 97.8 73.4 84.2 133.5zm-19.9-4.5c11.1-49.1-19.8-97.9-68.8-109-49.1-11.1-97.9 19.7-109 68.8-11.1 49.1 19.7 97.9 68.8 109 49.1 11.1 97.9-19.8 109-68.8z"/>
					</g>
					<g id="&lt;Group&gt;">
						<path id="&lt;Compound Path&gt;" fill-rule="evenodd" class="s21" d="m474.5 279.9c60.1 13.6 97.8 73.4 84.2 133.5-11.7 51.8-57.7 87-108.7 87-8.2 0-16.4-0.9-24.7-2.8-60.1-13.6-97.9-73.3-84.3-133.4 11.7-51.9 57.8-87 108.8-87 8.1 0 16.4 0.9 24.7 2.7zm-24.7-0.2c-24.4 0-48.3 8.4-67.6 23.5-19.5 15.4-33.2 37.3-38.7 61.5-6.4 28.4-1.4 57.7 14.2 82.3 15.5 24.6 39.7 41.7 68.1 48.1 8 1.8 16.1 2.7 24.2 2.7 24.3 0 48.3-8.3 67.5-23.5 19.5-15.4 33.2-37.2 38.7-61.5 6.4-28.4 1.4-57.6-14.1-82.2-15.6-24.7-39.8-41.8-68.2-48.2-7.9-1.8-16.1-2.7-24.1-2.7v-2.5z"/>
					</g>
				</g>
			</g>
			<g id="&lt;Group&gt;">
				<path id="&lt;Path&gt;" class="s6" d="m680.9 654.8c0 0-0.3 5.9 3.1 6.4 4.2 0.5 4.8 6.2 4.8 6.2 1.4 1.3 0 3.7 0 3.7h-25.6c-1.5-3.5 0-5.4 0-5.4z"/>
				<g id="&lt;Group&gt;">
					<path id="&lt;Path&gt;" class="s16" d="m677.6 491.2c0 0 6 16.9 6.3 37 0.2 18.1-1.3 76-1.3 76 0 0 0.5 43.6-2.6 56.7-1.2 4.9-12.1 9.1-19.2 6-6.5-17.1-6.3-67.6-6.3-67.6l-11.9-68.1v-32.9z"/>
					<path id="&lt;Path&gt;" class="s17" d="m656.5 526.5c0 0-6.8 45.4-7 44.3-0.2-1.1-6.9-39.6-6.9-39.6z"/>
				</g>
				<path id="&lt;Path&gt;" class="s6" d="m616.5 666.9c1.1 1.8 0 4.2 0 4.2h-42.4c-2.1-4.5 0-4.6 0-4.6 0-3.2 1.3-4.7 2.7-5.6 3-1.8 11.1-2.6 11.6-3.2 0.5-0.5 4.7-5.3 4.7-5.3l1.7-1.7z"/>
				<path id="&lt;Path&gt;" class="s16" d="m658.3 498.3c0 0 3.7 16.4-1.8 28.2-5.5 11.7-8.6 12.9-13.9 25.5-7.4 17.6-26.1 105.4-26.1 114.9 0 0-10 0.2-14.8-3.4-7.9-5.8-6.9-12.8-6.9-12.8l3.7-67.6 16.1-88.8z"/>
				<g id="&lt;Group&gt;">
					<path id="&lt;Path&gt;" class="s14" d="m686.6 391.1c7 0 13 4.9 14.3 11.7 3.9 18.9 11.1 54.7 11.1 59.9 0 7.2-29.1 31.6-29.1 31.6l-7.2-20.2c0 0 10.9-15.6 11.4-17.1l-11.4-27.9z"/>
					<path id="&lt;Path&gt;" class="s15" d="m684.9 427.4c0 0 6.7 18.2 6.7 19.4 0 3-4.5 10.2-4.5 10.2l-11.4-27.9z"/>
					<path id="&lt;Path&gt;" class="s15" d="m682.7 463.9c-0.8 1.2 4.9 26.4 7.4 24.1l-7.2 6.3-7.2-20.2z"/>
				</g>
				<path id="&lt;Path&gt;" class="s4" d="m575.7 485c-5 1.9-10.9-1.3-11.7-2.8-0.4-0.8-1.4-1.6-2.3-2.2-1.1-0.7-1.7-1.9-1.7-3.2v-4.7l2.7 1.3-4-6.9c-0.5-1-0.3-2.3 0.5-3.1 1.2-1 2.9-0.7 3.7 0.5l2.5 3.6c0 0 4 1 4.9 3.4z"/>
				<g id="&lt;Group&gt;">
					<path id="&lt;Path&gt;" class="s4" d="m631.2 351.6c-6 4.8-8 30.7 5.1 30.6 15.2-0.1 1.6-35.7-5.1-30.6z"/>
					<path id="&lt;Path&gt;" class="s5" d="m636.3 382.2c-2.5 0-4.4-0.9-5.9-2.5 2.4-1.4 3.3-6.6 3.2-10.1l7.8-6.5c2.9 8.7 3 19-5.1 19.1z"/>
					<path id="&lt;Path&gt;" class="s4" d="m636 359.6l24.6 8.7-0.4 22.8h-25.3c0 0 2.7-21.4 2.7-21.7z"/>
					<path id="&lt;Path&gt;" class="s6" d="m632.4 362c0.2 1 0.2 2.5-0.6 3-0.9 0.6-2.1 0.9-2.1 0.9 0 0-1.2-1.9 0.6-5.8 1.9-3.8-0.9-4.2-0.5-7.8-2.2-3.5 0.4-7 3.3-6.9 0 0 0.4-6.1 6.1-5.2 0 0 2.5-4.6 8.1-3.5 5.6 1 4.6 2.9 9.7 4.7 5.1 1.8 9 5.4 6.2 10.2 0 0 6.3 3 2.4 11.5-4 8.6-2.5 12.4-5.2 14.8-3.7 3.3-4.8-1.5-7.2-0.4-2.4 1-3.6 3.4-10.3 1.5-6.7-1.8-6.6-8.4-5.2-12.9 1.4-4.5-2.1-7.7-4.2-6.2-1.4 1-1.1 2.1-1.1 2.1z"/>
					<path id="&lt;Path&gt;" class="s5" d="m633.6 369.6l0.6-10.1c4.1 0.7 3.2 11.3-0.1 12.9z"/>
					<path id="&lt;Path&gt;" class="s4" d="m633.2 369.7c0 0-0.1-4.1-0.8-7.7-0.6-3.7 3.8-3.6 4 1.9 0.1 3.8-0.9 5.6-3.2 5.8z"/>
				</g>
				<path id="&lt;Path&gt;" class="s14" d="m615.1 391.1h71.6c0 0 11.4 28.1-7 74.4l4.7 21.9c1.2 5.6-3.1 10.9-8.8 10.9h-57c-5.2 0-9.3-4.3-9-9.5z"/>
				<path id="&lt;Path&gt;" class="s15" d="m635 498.3h-16.4c-5.2 0-9.3-4.3-9-9.5l3-53.9h8.7v49.6c0 7.6 6.1 13.8 13.7 13.8z"/>
				<path id="&lt;Path&gt;" class="s14" d="m621.3 434.9c0 0-6.8 29.8-11.7 36-4.9 6.3-13.6 11.4-19.9 14.5-6.1 3-13.7 1.6-17.9-3.7-4.8-5.9-1.5-10.8-1.5-10.8l22.9-17.4 8.1-50.6c1-6.8 6.9-11.8 13.8-11.8 15.2 0 6.2 43.8 6.2 43.8z"/>
			</g>
		</g>
		<g id="&lt;Group&gt;">
			<path id="&lt;Path&gt;" class="s22" d="m294.1 581.3l3.4 3.9c0.9 1 2.2 1.3 3.4 0.8l4.8-2.1c2.6-1.1 5.2 1.8 3.7 4.2l-2.7 4.5c-0.6 1.1-0.5 2.5 0.3 3.5l3.5 3.9c1.9 2.2-0.1 5.5-2.8 4.8l-5.2-1.1c-1.2-0.3-2.5 0.2-3.1 1.3l-2.7 4.6c-1.5 2.4-5.2 1.5-5.5-1.3l-0.5-5.2c-0.1-1.3-1-2.3-2.2-2.6l-5.2-1.2c-2.7-0.6-3.1-4.4-0.5-5.5l4.9-2.1c1.1-0.5 1.8-1.7 1.7-3l-0.5-5.2c-0.2-2.8 3.3-4.3 5.2-2.2z"/>
			<path id="&lt;Path&gt;" class="s3" d="m288.3 588.4l0.4 5.2c0.1 1.3 1 2.3 2.2 2.6l5.1 1.3c2.8 0.7 3 4.5 0.4 5.5l-4.9 2c-1.1 0.5-1.9 1.7-1.8 3l0.4 5.2c0.2 2.8-3.3 4.3-5.2 2.1l-3.3-4c-0.9-1-2.2-1.3-3.4-0.8l-4.9 2c-2.6 1.1-5.1-1.9-3.6-4.3l2.8-4.4c0.7-1.1 0.6-2.5-0.3-3.5l-3.4-4c-1.8-2.2 0.2-5.4 3-4.7l5.1 1.2c1.2 0.3 2.5-0.2 3.2-1.3l2.8-4.5c1.4-2.4 5.2-1.5 5.4 1.4z"/>
			<path id="&lt;Path&gt;" class="s3" d="m303.9 590.7l4 3.4c1 0.8 2.4 0.9 3.5 0.2l4.4-2.9c2.4-1.5 5.4 0.9 4.3 3.6l-1.9 4.9c-0.4 1.2-0.1 2.5 0.9 3.3l4.1 3.3c2.2 1.8 0.8 5.4-2.1 5.2l-5.2-0.3c-1.3 0-2.5 0.7-2.9 1.9l-1.9 4.9c-1.1 2.6-4.9 2.4-5.6-0.3l-1.3-5.1c-0.4-1.2-1.4-2.1-2.7-2.2l-5.3-0.3c-2.8-0.2-3.8-3.9-1.4-5.4l4.5-2.8c1-0.7 1.5-2 1.2-3.3l-1.3-5c-0.7-2.8 2.5-4.9 4.7-3.1z"/>
			<path id="&lt;Path&gt;" class="s14" d="m320 670.5h-47.7c-2.3 0-4.1-1.7-4.2-3.9l-3-63.6c-0.1-2.4 1.8-4.3 4.2-4.3h53.7c2.4 0 4.3 1.9 4.2 4.3l-3 63.6c-0.1 2.2-1.9 3.9-4.2 3.9z"/>
			<g id="&lt;Group&gt;">
				<path id="&lt;Path&gt;" class="s16" d="m303.9 651.6c-14.9 0-23.8-9.3-27.9-15.2-5.7-8.1-8.4-18.3-6-22.8 0.7-1.4 1.9-2.1 3.3-2.1v2c-0.4 0-1 0.1-1.5 1.1-1.8 3.3 0.2 12.6 5.8 20.6 4.4 6.2 14.3 16.3 31.1 14 16.1-2.2 19.3-16.7 19.9-22.8 0.7-7.1-1-11.6-2-11.9l0.1-2c3.1 0 3.9 6.4 4.1 8.4 0.6 9.4-3.1 27.8-21.8 30.4q-2.7 0.3-5.1 0.3z"/>
			</g>
		</g>
		<g id="&lt;Group&gt;">
			<path id="&lt;Path&gt;" class="s1" d="m349.2 486.5c0 18.3-16.8 33.1-37.4 33.1-20.7 0-37.5-14.8-37.5-33.1 0-4.7 1.1-9.1 3.1-13.1 1.9-4 2-8.6 0-12.5l-14.3-27.3 19.6 19.3c3.8 3.8 9.5 5 14.5 3.1 4.5-1.7 9.4-2.6 14.6-2.6 20.6 0 37.4 14.8 37.4 33.1z"/>
			<g id="&lt;Group&gt;">
				<path id="&lt;Path&gt;" class="s0" d="m325 498.9h-25.4c-1.4 0-2.6-1.1-2.6-2.5 0-1.4 1.2-2.6 2.6-2.6h25.4c1.4 0 2.6 1.2 2.6 2.6 0 1.4-1.2 2.5-2.6 2.5z"/>
				<path id="&lt;Path&gt;" class="s0" d="m325 489h-25.4c-1.4 0-2.6-1.1-2.6-2.5 0-1.4 1.2-2.5 2.6-2.5h25.4c1.4 0 2.6 1.1 2.6 2.5 0 1.4-1.2 2.5-2.6 2.5z"/>
				<path id="&lt;Path&gt;" class="s0" d="m325 479.2h-25.4c-1.4 0-2.6-1.2-2.6-2.6 0-1.4 1.2-2.5 2.6-2.5h25.4c1.4 0 2.6 1.1 2.6 2.5 0 1.4-1.2 2.6-2.6 2.6z"/>
			</g>
		</g>
		<g id="&lt;Group&gt;">
			<path id="&lt;Path&gt;" class="s1" d="m553.3 267.4c0-18.3 16.7-33.1 37.4-33.1 20.7 0 37.5 14.8 37.5 33.1 0 4.7-1.1 9.1-3.1 13.1-1.9 4-2 8.6 0 12.5l14.2 27.3-19.5-19.3c-3.9-3.8-9.5-5-14.5-3.1-4.5 1.7-9.4 2.6-14.6 2.6-20.7 0-37.4-14.8-37.4-33.1z"/>
			<g id="&lt;Group&gt;">
				<path id="&lt;Path&gt;" class="s0" d="m577.5 255h25.4c1.4 0 2.5 1.2 2.5 2.6 0 1.4-1.1 2.5-2.5 2.5h-25.4c-1.4 0-2.6-1.1-2.6-2.5 0-1.4 1.2-2.6 2.6-2.6z"/>
				<path id="&lt;Path&gt;" class="s0" d="m577.5 264.9h25.4c1.4 0 2.5 1.1 2.5 2.5 0 1.4-1.1 2.6-2.5 2.6h-25.4c-1.4 0-2.6-1.2-2.6-2.6 0-1.4 1.2-2.5 2.6-2.5z"/>
				<path id="&lt;Path&gt;" class="s0" d="m577.5 274.8h25.4c1.4 0 2.5 1.1 2.5 2.5 0 1.4-1.1 2.5-2.5 2.5h-25.4c-1.4 0-2.6-1.1-2.6-2.5 0-1.4 1.2-2.5 2.6-2.5z"/>
			</g>
		</g>
		<path id="&lt;Path&gt;" class="s23" d="m558.6 560.4c-0.9 24-16.9 46.9-39.2 55.9-22.3 9.1-49.7 4-67.1-12.5-17.5-16.6-24.2-43.7-16.3-66.4 2.6-7.6 9.4-15.9 17-13.4 4.8 1.6 7.3 6.8 8.2 11.7 3.4 17.9-9.4 36.5-26.5 42.8-17.1 6.3-37 1.8-52-8.6-15-10.4-25.7-26-33.6-42.5"/>
		<path id="&lt;Path&gt;" class="s23" d="m527 61.4c25.1-32.2 72.7-44.5 110.3-28.6 37.6 16 61.8 58.8 56.1 99.2-3 20.9-12.7 43.2-2.8 61.8 7.2 13.7 22.9 20.5 33.1 32.1 15.9 18.2 16 46.1 6.8 68.4-9.3 22.2-26.4 40.2-43.2 57.6"/>
		<path id="&lt;Path&gt;" class="s23" d="m149.3 457.1c-35.8-6.3-63.8-42.3-60.9-78.5 0.4-5.5 1.6-11.2 5-15.5 3.5-4.3 9.9-6.7 14.8-4.2 4.9 2.6 6.1 10.7 1.4 13.6-5 3-11.1-1.4-14.9-5.8-22.5-26-29.8-64.4-18.3-96.9 11.4-32.5 41.1-57.9 74.9-64.2"/>
		<g id="&lt;Group&gt;">
			<path id="&lt;Path&gt;" class="s24" d="m143.8 514.2c0 6.7-5.4 12-12 12-6.7 0-12.1-5.3-12.1-12 0-6.6 5.4-12 12.1-12 6.6 0 12 5.4 12 12z"/>
		</g>
		<g id="&lt;Group&gt;">
			<path id="&lt;Path&gt;" class="s24" d="m631 81.1c0 6.7-5.4 12.1-12 12.1-6.6 0-12-5.4-12-12.1 0-6.6 5.4-12 12-12 6.6 0 12 5.4 12 12z"/>
		</g>
		<g id="&lt;Group&gt;">
			<path id="&lt;Path&gt;" class="s24" d="m251 53.5c0 3.3-2.7 6-6 6-3.3 0-6-2.7-6-6 0-3.3 2.7-6 6-6 3.3 0 6 2.7 6 6z"/>
		</g>
		<g id="&lt;Group&gt;">
			<path id="&lt;Path&gt;" class="s24" d="m533 511.1c0 3.3-2.7 6-6 6-3.3 0-6-2.7-6-6 0-3.3 2.7-6 6-6 3.3 0 6 2.7 6 6z"/>
		</g>
		<g id="&lt;Group&gt;">
			<path id="&lt;Path&gt;" class="s24" d="m279.1 552.9c0 3.4-2.7 6-6 6-3.3 0-6-2.6-6-6 0-3.3 2.7-6 6-6 3.3 0 6 2.7 6 6z"/>
		</g>
		<g id="&lt;Group&gt;">
			<path id="&lt;Path&gt;" class="s24" d="m682 209.8c0 3.3-2.7 6-6 6-3.3 0-6-2.7-6-6 0-3.3 2.7-6 6-6 3.3 0 6 2.7 6 6z"/>
		</g>
		<g id="&lt;Group&gt;">
			<path id="&lt;Path&gt;" class="s24" d="m117.2 185.5c0 3.3-2.7 6-6 6-3.3 0-6-2.7-6-6 0-3.4 2.7-6.1 6-6.1 3.3 0 6 2.7 6 6.1z"/>
		</g>
	</g>
	<g id="OBJECTS">
		<g id="&lt;Group&gt;">
		</g>
	</g>
</svg>